<svg xmlns="http://www.w3.org/2000/svg" width="16.964" height="18.095" viewBox="0 0 16.964 18.095">
  <g id="noun-change-password-4595379" transform="translate(-198.337 -93.329)">
    <path id="Path_37964" data-name="Path 37964" d="M211.7,118.57a1.7,1.7,0,0,1-1.7-1.7v-5.655a1.7,1.7,0,0,1,1.7-1.7h9.048a1.7,1.7,0,0,1,1.7,1.7v1.7a2.3,2.3,0,0,0-.758.13,2.263,2.263,0,0,0-1.131.916,2.334,2.334,0,0,0-.492-.051,2.262,2.262,0,0,0-2.211,2.754,2.3,2.3,0,0,0-1.063,1.906Zm3.393-5.225a1.7,1.7,0,1,0,2.262,0v-1a1.131,1.131,0,0,0-2.262,0Zm3.958-5.519A2.827,2.827,0,0,0,216.22,105a2.827,2.827,0,0,1,2.827,2.827Z" transform="translate(-11.098 -11.104)" fill="#9e9e9e"/>
    <path id="Path_37965" data-name="Path 37965" d="M209.646,98.984a1.131,1.131,0,0,1,1.131,1.131V101.3a3.584,3.584,0,0,0-.373.1,2.827,2.827,0,0,0-1.221.848h-.238a2.793,2.793,0,0,0-1.7.566,2.308,2.308,0,0,0-.43-.8v-.769a1.7,1.7,0,1,0-3.393,0v.769a2.262,2.262,0,0,0,1.7,3.755,2.391,2.391,0,0,0,.639-.09,2.644,2.644,0,0,0-.475.843,2.923,2.923,0,0,0-.107.379H200.6a1.131,1.131,0,0,1-1.131-1.131v-5.655a1.131,1.131,0,0,1,1.131-1.131h9.048m-4.524-5.655a3.393,3.393,0,0,0-3.393,3.393v1.131H200.6a2.262,2.262,0,0,0-2.262,2.262v5.655a2.262,2.262,0,0,0,2.262,2.262h5.751a1.7,1.7,0,0,1,1.086-2.183,1.7,1.7,0,0,1,2.29-2.29,1.7,1.7,0,0,1,2.183-1.086v-2.358a2.262,2.262,0,0,0-2.262-2.262h-1.131V96.722a3.393,3.393,0,0,0-3.393-3.393Zm-2.262,4.524V96.722a2.262,2.262,0,1,1,4.524,0v1.131Zm2.262,6.786h0a1.131,1.131,0,0,1-.565-2.109v-1.283a.565.565,0,1,1,1.131,0v1.284h0a1.131,1.131,0,0,1-.566,2.109Z" fill="#9e9e9e"/>
    <path id="Path_37966" data-name="Path 37966" d="M419.6,340.234l-.452-.091h0a2.2,2.2,0,0,1-.328-.1,2.264,2.264,0,0,0,.78.141,2.326,2.326,0,0,0,.9-.187,2.053,2.053,0,0,1-.447.141Zm1.629-.673-.328.215h0a2.109,2.109,0,0,0,.566-.565l-.215.328.763.769Zm-3.263,0-.221-.334h0a2.343,2.343,0,0,0,.566.566l-.328-.215-.769.763ZM417.6,339h0a2.174,2.174,0,0,1-.215-.6l-.09-.452.09-.452h0a2.263,2.263,0,0,1,.334-.792l.249-.385-.763-.769.769.763.339-.221a2.212,2.212,0,0,0-.837,1.131,2,2,0,0,0-.136.707,2.04,2.04,0,0,0,.141.769,2.463,2.463,0,0,0,.119.283Zm4.066-.136h0a2.222,2.222,0,0,0,0-1.781,2.181,2.181,0,0,1,.13.413l.09.452-.09.452h0a2.335,2.335,0,0,1-.13.447Zm-.187-2.177h0a2.262,2.262,0,0,0-1.131-.865,2,2,0,0,0-.746-.153,2.042,2.042,0,0,0-.769.141,1.556,1.556,0,0,0-.266.113,2.126,2.126,0,0,1,.566-.209l.452-.09.452.09a2.264,2.264,0,0,1,.792.334l.385.249.769-.763-.763.769Z" transform="translate(-208.257 -230.461)"/>
    <path id="Path_37967" data-name="Path 37967" d="M388.961,303.33a.566.566,0,0,0-.566.566v.622a2.83,2.83,0,0,0-.99.413l-.447-.441a.564.564,0,1,0-.8.8l.441.447h0a2.829,2.829,0,0,0-.413.989h-.622a.566.566,0,1,0,0,1.131h.622a2.829,2.829,0,0,0,.413.989l-.441.447h0a.564.564,0,0,0,.8.8l.447-.441a2.828,2.828,0,0,0,.99.413v.622a.565.565,0,1,0,1.131,0v-.622a2.825,2.825,0,0,0,.99-.413l.447.441a.564.564,0,0,0,.8-.8l-.441-.447h0a2.823,2.823,0,0,0,.413-.989h.622a.566.566,0,0,0,0-1.131h-.622a2.823,2.823,0,0,0-.413-.989l.441-.447h0a.564.564,0,0,0-.8-.8l-.447.441a2.827,2.827,0,0,0-.99-.413V303.9a.565.565,0,0,0-.565-.566Zm0,5.655a1.7,1.7,0,0,1-1.595-1.131,1.623,1.623,0,0,1,0-1.131,1.7,1.7,0,0,1,1.029-1.029,1.621,1.621,0,0,1,1.131,0,1.7,1.7,0,0,1-.565,3.291Z" transform="translate(-177.618 -199.823)" fill="#f9850d"/>
  </g>
</svg>
