<svg xmlns="http://www.w3.org/2000/svg" width="15" height="14.625" viewBox="0 0 15 14.625">
  <g id="Group_36606" data-name="Group 36606" transform="translate(11591 -8060.5)">
    <path id="trash-Filled_1_" d="M649.975,2560.272l-.458,6.9a2.642,2.642,0,0,1-2.625,2.452h-4.785a2.641,2.641,0,0,1-2.625-2.445l-.458-6.908a.383.383,0,0,1,.1-.277.392.392,0,0,1,.278-.12h10.2a.393.393,0,0,1,.277.12A.383.383,0,0,1,649.975,2560.272Zm-6.225,2.228a.75.75,0,1,0-1.5,0v3.75a.75.75,0,1,0,1.5,0Zm3,0a.75.75,0,1,0-1.5,0v3.75a.75.75,0,1,0,1.5,0Z" transform="translate(-12228.024 5505.5)" fill="#9e9e9e"/>
    <g id="trash-Filled" transform="translate(-11591 8060.5)">
      <path id="trash-Filled_1_2" data-name="trash-Filled_1_" d="M652,2558a.75.75,0,0,1-.75.75h-13.5a.75.75,0,0,1,0-1.5h2.669a.749.749,0,0,0,.712-.513l.237-.711a1.5,1.5,0,0,1,1.423-1.026h3.419a1.5,1.5,0,0,1,1.423,1.025l.237.712a.75.75,0,0,0,.712.512h2.669A.75.75,0,0,1,652,2558Z" transform="translate(-637 -2555)" fill="#41416e"/>
      <path id="trash-Filled_1_3" data-name="trash-Filled_1_" d="M652,2558a.75.75,0,0,1-.75.75h-13.5a.75.75,0,0,1,0-1.5h2.669a.749.749,0,0,0,.712-.513l.237-.711a1.5,1.5,0,0,1,1.423-1.026h3.419a1.5,1.5,0,0,1,1.423,1.025l.237.712a.75.75,0,0,0,.712.512h2.669A.75.75,0,0,1,652,2558Z" transform="translate(-637 -2555)" fill="#f9850d"/>
    </g>
  </g>
</svg>
