<svg xmlns="http://www.w3.org/2000/svg" width="18.039" height="18.039" viewBox="0 0 18.039 18.039">
  <path id="Path_37" data-name="Path 37" d="M9.019,1.6a27.655,27.655,0,0,1,3.608.1,4.648,4.648,0,0,1,1.7.3,3.52,3.52,0,0,1,1.7,1.7,4.648,4.648,0,0,1,.3,1.7c0,.9.1,1.2.1,3.608a27.654,27.654,0,0,1-.1,3.608,4.648,4.648,0,0,1-.3,1.7,3.52,3.52,0,0,1-1.7,1.7,4.648,4.648,0,0,1-1.7.3c-.9,0-1.2.1-3.608.1a27.654,27.654,0,0,1-3.608-.1,4.648,4.648,0,0,1-1.7-.3,3.52,3.52,0,0,1-1.7-1.7,4.648,4.648,0,0,1-.3-1.7c0-.9-.1-1.2-.1-3.608a27.656,27.656,0,0,1,.1-3.608,4.648,4.648,0,0,1,.3-1.7,3.6,3.6,0,0,1,.7-1,1.694,1.694,0,0,1,1-.7,4.648,4.648,0,0,1,1.7-.3,27.656,27.656,0,0,1,3.608-.1m0-1.6A29.611,29.611,0,0,0,5.311.1a6.187,6.187,0,0,0-2.2.4,3.923,3.923,0,0,0-1.6,1,3.923,3.923,0,0,0-1,1.6,4.566,4.566,0,0,0-.4,2.2A29.611,29.611,0,0,0,0,9.019a29.611,29.611,0,0,0,.1,3.708,6.187,6.187,0,0,0,.4,2.2,3.923,3.923,0,0,0,1,1.6,3.923,3.923,0,0,0,1.6,1,6.187,6.187,0,0,0,2.2.4,29.612,29.612,0,0,0,3.708.1,29.612,29.612,0,0,0,3.708-.1,6.187,6.187,0,0,0,2.2-.4,4.2,4.2,0,0,0,2.606-2.606,6.187,6.187,0,0,0,.4-2.2c0-1,.1-1.3.1-3.708a29.612,29.612,0,0,0-.1-3.708,6.187,6.187,0,0,0-.4-2.2,3.923,3.923,0,0,0-1-1.6,3.923,3.923,0,0,0-1.6-1,6.187,6.187,0,0,0-2.2-.4A29.611,29.611,0,0,0,9.019,0m0,4.41a4.536,4.536,0,0,0-4.61,4.61,4.61,4.61,0,1,0,4.61-4.61m0,7.616A2.953,2.953,0,0,1,6.013,9.019,2.953,2.953,0,0,1,9.019,6.013a2.953,2.953,0,0,1,3.006,3.006,2.953,2.953,0,0,1-3.006,3.006m4.81-8.919a1.1,1.1,0,1,0,1.1,1.1,1.112,1.112,0,0,0-1.1-1.1" fill="#ababab" fill-rule="evenodd"/>
</svg>
