<svg xmlns="http://www.w3.org/2000/svg" width="17.323" height="17.448" viewBox="0 0 17.323 17.448">
  <g id="Group_36378" data-name="Group 36378" transform="translate(0 0)">
    <path id="globe-Regular_1_" d="M558.074,1090.068a8.621,8.621,0,0,0-6.922-5.731,8.941,8.941,0,0,0-2.48,0,8.737,8.737,0,0,0,0,17.274,8.878,8.878,0,0,0,1.24.087,8.74,8.74,0,0,0,1.24-.088,8.731,8.731,0,0,0,6.922-11.542Zm-1.638-.448h-2.7a14.641,14.641,0,0,0-1.282-3.56A7.273,7.273,0,0,1,556.436,1089.62Zm.8,3.355a7.285,7.285,0,0,1-.285,2.014h-2.979a13.226,13.226,0,0,0,0-4.026h2.979A7.288,7.288,0,0,1,557.241,1092.974Zm-10.049,2.014a12.214,12.214,0,0,1,0-4.026h5.441a12.243,12.243,0,0,1,0,4.026Zm-4.324,0a7.248,7.248,0,0,1,0-4.026h2.979a13.19,13.19,0,0,0,0,4.026Zm7.8-9.344a13.294,13.294,0,0,1,1.7,3.976h-4.906a13.3,13.3,0,0,1,1.7-3.975,7.455,7.455,0,0,1,.754-.053A7.247,7.247,0,0,1,550.666,1085.645Zm-3.294.416a14.6,14.6,0,0,0-1.282,3.56h-2.7A7.264,7.264,0,0,1,547.372,1086.061Zm-3.984,10.269h2.7a14.65,14.65,0,0,0,1.281,3.557A7.269,7.269,0,0,1,543.388,1096.331Zm5.769,3.973a13.316,13.316,0,0,1-1.7-3.972h4.906a13.322,13.322,0,0,1-1.7,3.972A7.587,7.587,0,0,1,549.157,1100.3Zm3.294-.416a14.61,14.61,0,0,0,1.281-3.557h2.7A7.267,7.267,0,0,1,552.451,1099.887Z" transform="translate(-541.25 -1084.25)" fill="#9e9e9e"/>
    <g id="Group_36342" data-name="Group 36342" transform="translate(1.594 5.346)">
      <path id="Path_37912" data-name="Path 37912" d="M3350.927,1089.146l.59,1.4H3337.3l.533-1.42Z" transform="translate(-3337.242 -1089.122)" fill="#f9850d"/>
      <path id="Path_37913" data-name="Path 37913" d="M3351.517,1094.46h-14.275l.528,1.436h13.161Z" transform="translate(-3337.242 -1089.122)" fill="#f9850d"/>
    </g>
  </g>
</svg>
