<svg xmlns="http://www.w3.org/2000/svg" width="18.524" height="20.641" viewBox="0 0 18.524 20.641">
  <g id="noun-power-1005558" transform="translate(0.262 0.25)" opacity="0.64">
    <path id="Path_37918" data-name="Path 37918" d="M113.933,102.462A9,9,0,0,1,110.16,85.3a.346.346,0,0,1,.291.627,8.306,8.306,0,1,0,6.966,0,.348.348,0,0,1,.3-.627,9,9,0,0,1-3.783,17.165Z" transform="translate(-104.939 -82.322)" stroke="#000" stroke-width="0.5"/>
    <path id="Path_37919" data-name="Path 37919" d="M338.524,14.341a.346.346,0,0,1-.346-.337V6.264a.346.346,0,1,1,.692,0V14A.346.346,0,0,1,338.524,14.341Z" transform="translate(-329.53 -5.918)" stroke="#000" stroke-width="0.5"/>
  </g>
</svg>
