<svg xmlns="http://www.w3.org/2000/svg" width="18.185" height="18.18" viewBox="0 0 18.185 18.18">
  <g id="Group_36339" data-name="Group 36339" transform="translate(0 0)">
    <path id="noun-invoice-3687026" d="M96.525,17.53a1.824,1.824,0,0,0-1.816,1.816v1.819h6.061a2.432,2.432,0,0,1,2.424,2.424v6.061a1.212,1.212,0,1,0,2.424,0l0-10.3A1.824,1.824,0,0,0,103.8,17.53Zm-7.271,4.847A1.8,1.8,0,0,0,87.436,24.2l0,9.7a1.829,1.829,0,0,0,1.822,1.816h7.27a1.829,1.829,0,0,0,1.822-1.816V23.59a2.391,2.391,0,0,1,.339-1.212Zm11.516,0a1.2,1.2,0,0,0-1.212,1.212v7.273h2.763a2.391,2.391,0,0,1-.339-1.212V23.59a1.2,1.2,0,0,0-1.212-1.212Zm-9.09,3.636h2.426a.606.606,0,1,1,0,1.212H91.68A.606.606,0,1,1,91.68,26.014Zm-.063,2.424a.606.606,0,0,1,.063,0h2.426a.607.607,0,0,1,0,1.213H91.68A.607.607,0,0,1,91.617,28.438Zm0,2.426a.608.608,0,0,1,.063,0h2.426a.606.606,0,1,1,0,1.212H91.68A.607.607,0,0,1,91.617,30.864Z" transform="translate(-87.434 -17.53)" fill="#9e9e9e"/>
    <path id="noun-invoice-3687026-2" data-name="noun-invoice-3687026" d="M96.525,17.53a1.824,1.824,0,0,0-1.816,1.816v1.819h6.061a2.432,2.432,0,0,1,2.424,2.424v6.061a1.212,1.212,0,1,0,2.424,0l0-10.3A1.824,1.824,0,0,0,103.8,17.53Z" transform="translate(-87.434 -17.53)" fill="#f9850d"/>
  </g>
</svg>
