<svg xmlns="http://www.w3.org/2000/svg" width="15.318" height="16.82" viewBox="0 0 15.318 16.82">
  <g id="noun-24-hours-4938081" transform="translate(-144.01 -52.319)">
    <path id="Path_37962" data-name="Path 37962" d="M158.907,61.159a.321.321,0,0,0-.321.321,6.917,6.917,0,1,1-7.323-6.9v1.191l2.765-1.64-2.765-1.64v1.437a7.559,7.559,0,1,0,7.965,7.548.321.321,0,0,0-.321-.322Z" fill="#f9850d" stroke="#f9850d" stroke-width="0.2"/>
    <path id="Path_37963" data-name="Path 37963" d="M218.158,160.508a.321.321,0,0,1-.643,0v-1.253a5.051,5.051,0,0,0-4.716,4.716h1.253a.321.321,0,0,1,0,.642H212.8a5.051,5.051,0,0,0,4.716,4.716v-1.253a.321.321,0,1,1,.643,0v1.253a5.042,5.042,0,0,0,4.713-4.716h-1.25a.321.321,0,0,1,0-.642h1.25a5.043,5.043,0,0,0-4.713-4.716Zm1.738,4.157a.32.32,0,0,1-.321.321h-2.342a.322.322,0,0,1-.321-.321v-2.22a.321.321,0,1,1,.643,0v1.9h2.021A.32.32,0,0,1,219.9,164.665Z" transform="translate(-66.168 -102.84)" fill="#9e9e9e"/>
  </g>
</svg>
