<svg xmlns="http://www.w3.org/2000/svg" width="18.039" height="14.632" viewBox="0 0 18.039 14.632">
  <path id="Path_36" data-name="Path 36" d="M43.712,16.632A10.429,10.429,0,0,0,54.235,6.109v-.5a8.146,8.146,0,0,0,1.8-1.9,8.32,8.32,0,0,1-2.1.6,3.9,3.9,0,0,0,1.6-2,9.192,9.192,0,0,1-2.3.9A3.579,3.579,0,0,0,50.527,2a3.765,3.765,0,0,0-3.708,3.708,1.953,1.953,0,0,0,.1.8A10.361,10.361,0,0,1,39.3,2.6a3.838,3.838,0,0,0-.5,1.9,3.982,3.982,0,0,0,1.6,3.107,3.378,3.378,0,0,1-1.7-.5h0a3.663,3.663,0,0,0,3.006,3.608,3.089,3.089,0,0,1-1,.1,1.705,1.705,0,0,1-.7-.1,3.8,3.8,0,0,0,3.508,2.606,7.566,7.566,0,0,1-4.61,1.6,2.775,2.775,0,0,1-.9-.1,9.459,9.459,0,0,0,5.712,1.8" transform="translate(-38 -2)" fill="#ababab" fill-rule="evenodd"/>
</svg>
