<svg xmlns="http://www.w3.org/2000/svg" width="18.753" height="13.127" viewBox="0 0 18.753 13.127">
  <path id="Path_3880" data-name="Path 3880" d="M315.708,435.027a4.115,4.115,0,0,0-4.115-4.115H301.07a4.115,4.115,0,0,0-4.115,4.115v4.9a4.115,4.115,0,0,0,4.115,4.115h10.523a4.115,4.115,0,0,0,4.115-4.115Zm-6.188,2.815-4.719,2.334c-.185.1-.814-.034-.814-.244v-4.792c0-.213.634-.347.819-.241l4.517,2.457C309.512,437.465,309.711,437.739,309.52,437.843Z" transform="translate(-296.955 -430.912)" fill="#ababab"/>
</svg>
