<svg xmlns="http://www.w3.org/2000/svg" width="22.203" height="23.5" viewBox="0 0 22.203 23.5">
  <g id="Bag" transform="translate(0.749 0.75)">
    <path id="Path_33955" d="M15.122,16.8H5.568c-3.51,0-6.2-1.268-5.437-6.37l.89-6.914C1.493.974,3.116,0,4.541,0h11.65c1.446,0,2.975,1.048,3.52,3.52l.89,6.914C21.251,14.96,18.632,16.8,15.122,16.8Z" transform="translate(0 5.196)" fill="none" stroke="#fff" stroke-linecap="round" stroke-linejoin="round" stroke-miterlimit="10" stroke-width="1.5"/>
    <path id="Path_33956" d="M9.91,4.945A4.945,4.945,0,0,0,4.966,0h0A4.945,4.945,0,0,0,0,4.945H0" transform="translate(5.369)" fill="none" stroke="#fff" stroke-linecap="round" stroke-linejoin="round" stroke-miterlimit="10" stroke-width="1.5"/>
    <path id="Line_192" d="M.487.458H.435" transform="translate(13.242 9.641)" fill="none" stroke="#fff" stroke-linecap="round" stroke-linejoin="round" stroke-miterlimit="10" stroke-width="1.5"/>
    <path id="Line_193" d="M.487.458H.435" transform="translate(6.568 9.641)" fill="none" stroke="#fff" stroke-linecap="round" stroke-linejoin="round" stroke-miterlimit="10" stroke-width="1.5"/>
  </g>
</svg>
