<svg xmlns="http://www.w3.org/2000/svg" width="23.798" height="23.818" viewBox="0 0 23.798 23.818">
  <g id="Category" transform="translate(0.75 0.75)">
    <path id="Stroke_1" data-name="Stroke 1" d="M2.449,0H5.716A2.459,2.459,0,0,1,8.163,2.47V5.764a2.46,2.46,0,0,1-2.448,2.47H2.449A2.46,2.46,0,0,1,0,5.764V2.47A2.46,2.46,0,0,1,2.449,0Z" transform="translate(14.135 2.318)" fill="none" stroke="#fff" stroke-linecap="round" stroke-linejoin="round" stroke-miterlimit="10" stroke-width="1.5"/>
    <path id="Stroke_3" data-name="Stroke 3" d="M3.138,0H7.323a3.152,3.152,0,0,1,3.138,3.166V7.387a3.153,3.153,0,0,1-3.138,3.166H3.138A3.153,3.153,0,0,1,0,7.387V3.166A3.152,3.152,0,0,1,3.138,0Z" fill="none" stroke="#fff" stroke-linecap="round" stroke-linejoin="round" stroke-miterlimit="10" stroke-width="1.5"/>
    <path id="Stroke_5" data-name="Stroke 5" d="M2.449,0H5.714A2.46,2.46,0,0,1,8.163,2.471V5.764a2.46,2.46,0,0,1-2.449,2.47H2.449A2.46,2.46,0,0,1,0,5.764V2.471A2.46,2.46,0,0,1,2.449,0Z" transform="translate(2.298 14.084)" fill="none" stroke="#fff" stroke-linecap="round" stroke-linejoin="round" stroke-miterlimit="10" stroke-width="1.5"/>
    <path id="Stroke_7" data-name="Stroke 7" d="M2.449,0H5.716A2.46,2.46,0,0,1,8.163,2.471V5.764a2.459,2.459,0,0,1-2.448,2.47H2.449A2.46,2.46,0,0,1,0,5.764V2.471A2.46,2.46,0,0,1,2.449,0Z" transform="translate(14.135 14.084)" fill="none" stroke="#fff" stroke-linecap="round" stroke-linejoin="round" stroke-miterlimit="10" stroke-width="1.5"/>
  </g>
</svg>
