<svg id="fi-rr-shopping-cart-add" xmlns="http://www.w3.org/2000/svg" width="15.207" height="15.229" viewBox="0 0 15.207 15.229">
  <circle id="Ellipse_3086" data-name="Ellipse 3086" cx="1.013" cy="1.013" r="1.013" transform="translate(3.393 13.204)" fill="#fff"/>
  <circle id="Ellipse_3087" data-name="Ellipse 3087" cx="1.013" cy="1.013" r="1.013" transform="translate(9.468 13.204)" fill="#fff"/>
  <path id="Path_36155" data-name="Path 36155" d="M20.435,1.9H19.168V.634a.634.634,0,0,0-1.267,0V1.9H16.634a.634.634,0,0,0,0,1.267H17.9V4.435a.634.634,0,0,0,1.267,0V3.168h1.267a.634.634,0,1,0,0-1.267Z" transform="translate(-5.862)" fill="#fff"/>
  <path id="Path_36156" data-name="Path 36156" d="M13.794,6.163a.63.63,0,0,0-.736.511,1.9,1.9,0,0,1-1.87,1.564H3.433l-.6-5.069h5.4a.634.634,0,1,0,0-1.267H2.688l-.027-.223A1.9,1.9,0,0,0,.774,0H.634a.634.634,0,1,0,0,1.267H.774a.634.634,0,0,1,.629.559L2.275,9.24a3.168,3.168,0,0,0,3.147,2.8h6.617a.634.634,0,0,0,0-1.267H5.422A1.9,1.9,0,0,1,3.629,9.5h7.558A3.168,3.168,0,0,0,14.306,6.9a.634.634,0,0,0-.511-.736Z" fill="#fff"/>
</svg>
