<svg xmlns="http://www.w3.org/2000/svg" width="24.5" height="24.293" viewBox="0 0 24.5 24.293">
  <g id="Group_1354" data-name="Group 1354" transform="translate(0.75 0.75)">
    <ellipse id="Ellipse_181" data-name="Ellipse 181" cx="11.5" cy="11.397" rx="11.5" ry="11.397" fill="none" stroke="#f6f6f7" stroke-miterlimit="10" stroke-width="1.5"/>
    <g id="Profile" transform="translate(5.721 4.064)">
      <circle id="Ellipse_736" cx="3.645" cy="3.645" r="3.645" transform="translate(2.137)" fill="none" stroke="#fff" stroke-linecap="round" stroke-linejoin="round" stroke-miterlimit="10" stroke-width="1.5"/>
      <path id="Path_33945" d="M0,2.3a1.69,1.69,0,0,1,.168-.74A3.084,3.084,0,0,1,2.318.325,12.808,12.808,0,0,1,4.106.073a19.114,19.114,0,0,1,3.345,0A12.954,12.954,0,0,1,9.239.325,2.967,2.967,0,0,1,11.39,1.561a1.732,1.732,0,0,1,0,1.487A2.938,2.938,0,0,1,9.239,4.277a11.991,11.991,0,0,1-1.788.258,19.7,19.7,0,0,1-2.724.042,3.1,3.1,0,0,1-.622-.042,11.767,11.767,0,0,1-1.781-.258A2.952,2.952,0,0,1,.168,3.048,1.739,1.739,0,0,1,0,2.3Z" transform="translate(0 10.06)" fill="none" stroke="#fff" stroke-linecap="round" stroke-linejoin="round" stroke-miterlimit="10" stroke-width="1.5"/>
    </g>
  </g>
</svg>
