<svg xmlns="http://www.w3.org/2000/svg" width="23.183" height="22.041" viewBox="0 0 23.183 22.041">
  <g id="Heart" transform="translate(0.772 0.791)">
    <path id="Path_33961" d="M10.548,20.334a39.679,39.679,0,0,1-6.858-5.34,13.656,13.656,0,0,1-3.264-5.2C-.8,5.98.631,1.618,4.637.327a6.809,6.809,0,0,1,6.179,1.041h0A6.819,6.819,0,0,1,16.994.327C21,1.618,22.441,5.98,21.216,9.789a13.656,13.656,0,0,1-3.264,5.2,39.679,39.679,0,0,1-6.858,5.34l-.268.167Z" transform="translate(0 0)" fill="none" stroke="#fff" stroke-linecap="round" stroke-linejoin="round" stroke-miterlimit="10" stroke-width="1.5"/>
    <path id="Path_33964" d="M0,0A3.168,3.168,0,0,1,2.183,2.758" transform="translate(15.078 4.616)" fill="none" stroke="#fff" stroke-linecap="round" stroke-linejoin="round" stroke-miterlimit="10" stroke-width="1.5"/>
  </g>
</svg>
