<svg xmlns="http://www.w3.org/2000/svg" width="16.936" height="16.934" viewBox="0 0 16.936 16.934">
  <path id="noun-call-5059547" d="M98.365,32.2c-4-.128-9.845-6.412-11.295-9.884a4.588,4.588,0,0,1,1.016-5.053l.724-.724a1.392,1.392,0,0,1,1.923,0l2.337,2.338a1.36,1.36,0,0,1,0,1.923L91.9,21.968a.911.911,0,0,0-.073,1.2,22.539,22.539,0,0,0,1.857,2.056,22.581,22.581,0,0,0,2.056,1.858.911.911,0,0,0,1.2-.073l1.173-1.173a1.392,1.392,0,0,1,1.923,0l2.338,2.337a1.362,1.362,0,0,1,0,1.923l-.724.723A4.64,4.64,0,0,1,98.365,32.2ZM89.772,16.68c-.493-.041-.967.682-1.3.963h0a4.049,4.049,0,0,0-.891,4.477c1.07,2.972,6.232,8.134,9.206,9.2h0a4.052,4.052,0,0,0,4.477-.891l.724-.723h0a.818.818,0,0,0,0-1.154L99.649,26.22h0a.836.836,0,0,0-1.154,0l-1.173,1.173c-1.511,1.3-2.75-.7-4.024-1.785-1.087-1.279-3.079-2.512-1.784-4.024l1.173-1.173a.82.82,0,0,0,0-1.154L90.349,16.92a.811.811,0,0,0-.577-.239Zm12.843,7.132a.273.273,0,0,1-.262-.344c1.2-3.981-2.935-8.119-6.915-6.915a.272.272,0,0,1-.144-.525,6.264,6.264,0,0,1,7.584,7.584h0a.272.272,0,0,1-.262.2Zm-2.029-.509a.273.273,0,0,1-.261-.348c.818-2.425-1.95-5.194-4.375-4.375h0a.272.272,0,0,1-.152-.523,4.189,4.189,0,0,1,5.049,5.05.272.272,0,0,1-.261.2Zm-2.035-.516a.273.273,0,0,1-.26-.35,1.524,1.524,0,0,0-1.822-1.822.272.272,0,1,1-.157-.521,2.055,2.055,0,0,1,2.5,2.5.272.272,0,0,1-.26.193Z" transform="translate(-86.458 -15.512)" stroke="#000" stroke-width="0.5"/>
</svg>
