<svg xmlns="http://www.w3.org/2000/svg" width="19.035" height="19.037" viewBox="0 0 19.035 19.037">
  <path id="noun-shipping-3484992" d="M104.651,26.224a1.186,1.186,0,0,0-1.195,1.178v8.482a1.186,1.186,0,0,0,1.195,1.178h9.1a1.187,1.187,0,0,0,1.194-1.178V27.4a1.185,1.185,0,0,0-1.194-1.178Zm0,.657h3.072v2.626a.328.328,0,0,0,.475.293l1.165-.581,1.165.581a.328.328,0,0,0,.474-.293V26.881h2.745a.529.529,0,0,1,.538.52v8.482a.529.529,0,0,1-.538.521h-9.1a.527.527,0,0,1-.538-.521V27.4a.526.526,0,0,1,.538-.52Zm3.728,0h1.967v2.1l-.836-.419a.328.328,0,0,0-.3,0l-.836.419Zm-6.894,1.642a.328.328,0,1,0,0,.657h.986a.328.328,0,1,0,0-.657Zm-4.921,1.313a.327.327,0,1,0,0,.654h3.593a.327.327,0,1,0,0-.654ZM98.187,31.8a.328.328,0,0,0,0,.656h2.953a.328.328,0,0,0,0-.656Zm11.176,2.3v.983a.328.328,0,1,0,.656,0V34.1a.328.328,0,1,0-.656,0Zm1.313,0v.983a.328.328,0,1,0,.657,0V34.1A.328.328,0,1,0,110.676,34.1Zm1.313,0v.983a.328.328,0,1,0,.656,0V34.1A.328.328,0,1,0,111.989,34.1Zm-15.115-.33a.328.328,0,1,0,0,.657h3.282a.328.328,0,1,0,0-.657Zm6.233,3.611a6.366,6.366,0,0,0-2.138.688c-.376.18-.688.34-.923.467a.989.989,0,0,0-.855-.5h-1.97a.985.985,0,0,0-.986.986V43.62a.987.987,0,0,0,.986.986h1.97a.984.984,0,0,0,.983-.986v-.056a15.271,15.271,0,0,1,1.97-.27,4.589,4.589,0,0,1,1.657.923,4.282,4.282,0,0,0,2.279,1.044,2.4,2.4,0,0,0,.822-.2,74.848,74.848,0,0,0,7.789-4.1,1.152,1.152,0,0,0,.426-1.57,1.206,1.206,0,0,0-1.514-.448l-4.593,1.59a1.271,1.271,0,0,0-.621-.832,40,40,0,0,0-3.927-1.931,4.18,4.18,0,0,0-1.356-.378Zm-.021.656a3.916,3.916,0,0,1,1.131.33,41.606,41.606,0,0,1,3.842,1.892A.656.656,0,1,1,107.4,41.4l-1.989-1.149a.328.328,0,1,0-.327.567l1.989,1.148a1.316,1.316,0,0,0,1.793-.479,1.335,1.335,0,0,0,.115-.256l4.834-1.675c.843-.292.99.576.555.824a76.559,76.559,0,0,1-7.7,4.063,2.747,2.747,0,0,1-.592.165,4.224,4.224,0,0,1-1.9-.926,4.611,4.611,0,0,0-2.034-1.044,13.456,13.456,0,0,0-1.97.26V39.22s.549-.3,1.076-.554a6.218,6.218,0,0,1,1.837-.625Zm-5.865.656h1.97a.327.327,0,0,1,.327.33V43.62a.33.33,0,0,1-.327.33h-1.97a.33.33,0,0,1-.33-.33V39.028a.327.327,0,0,1,.33-.33Zm.656,3.939a.328.328,0,1,0,.328.328A.328.328,0,0,0,97.877,42.636Z" transform="translate(-96.235 -26.224)"/>
</svg>
