<svg xmlns="http://www.w3.org/2000/svg" width="21.998" height="20.306" viewBox="0 0 21.998 20.306">
  <path id="noun-credit-card-1937369" d="M136.035,70a1.988,1.988,0,0,0-1,.27L123.5,76.921a2.007,2.007,0,0,0-.735,2.74l1.394,2.413.011.017,2.188,3.783a.422.422,0,0,0,.1.149l0,0a.423.423,0,0,0,.709-.388l0-4.568a1.154,1.154,0,0,1,1.161-1.163l.677,0,.156,0,8.264,0a.423.423,0,1,0,0-.846l-6.762,0,8.082-4.676.8,1.386c.008.013.015.026.024.038l1.384,2.4a1.15,1.15,0,0,1,.124.858H139.09a.423.423,0,1,0,0,.846l3.393,0h0a1.151,1.151,0,0,1,1.158,1.163l0,4.408c0,.014,0,.027,0,.041l0,2.781a1.146,1.146,0,0,1-1.16,1.16l-14.148-.007a1.157,1.157,0,0,1-1.162-1.162l0-.415a.423.423,0,1,0-.846,0l0,.415v0a2.016,2.016,0,0,0,2.009,2.009l14.148.007a2.011,2.011,0,0,0,2.006-2.006l0-2.741a.306.306,0,0,0,0-.04l0-4.449v0a2.012,2.012,0,0,0-2.006-2.008h-.538a2.008,2.008,0,0,0-.25-1.282l-1.41-2.438-.012-.019-.965-1.672a.43.43,0,0,0-.069-.119L138.2,71.725a.41.41,0,0,0-.08-.14L137.78,71v0a2.007,2.007,0,0,0-1.22-.932,2.035,2.035,0,0,0-.525-.069Zm.034.843a1.153,1.153,0,0,1,.979.584l.164.283L123.66,79.522l-.164-.284a1.148,1.148,0,0,1,.421-1.583h0L135.459,71h0a1.156,1.156,0,0,1,.608-.159Zm1.567,1.6.695,1.2-9.347,5.409-.04,0-.607,0a2.011,2.011,0,0,0-1.933,1.466l-1.622.934-.7-1.206Zm-7.811,8.54a1.44,1.44,0,1,0,1.439,1.441A1.448,1.448,0,0,0,129.824,80.983Zm8.809,0a1.438,1.438,0,0,0-.031,2.876h.031a1.445,1.445,0,0,0,.769-.226,1.44,1.44,0,0,0,.735.225h.033a1.438,1.438,0,0,0,.029-2.876h-.031a1.43,1.43,0,0,0-.767.224,1.448,1.448,0,0,0-.735-.223h-.033Zm-12.306.563,0,2.586L125.2,82.195Zm3.5.282a.586.586,0,0,1,.593.593v0a.594.594,0,0,1-1.188,0v0A.588.588,0,0,1,129.824,81.829Zm10.347,0a.592.592,0,0,1,0,1.185.538.538,0,0,1-.414-.173.47.47,0,0,0-.326-.186l-.043,0a.456.456,0,0,0-.34.187.54.54,0,0,1-.416.174.592.592,0,1,1,.449-.978l.012.013.014.015.017.015.015.013.019.013.016.011.019.012.017.009.02.009.019.008.02.007.02.006.021.005.019,0,.022,0,.02,0h.063l.022,0,.02,0,.021,0,.02-.005.02-.006.02-.008.019-.008.019-.009.019-.01.017-.011.019-.012.017-.014.015-.013.016-.015.016-.016,0,0,.006-.007A.59.59,0,0,1,140.172,81.831Zm-11.248,3.18a.423.423,0,1,0,0,.846H141.9a.423.423,0,1,0,0-.846Zm0,2.175a.423.423,0,1,0,0,.846l8,.007a.423.423,0,1,0,0-.846Z" transform="translate(-122.494 -70)"/>
</svg>
