<svg id="noun-delivery-address-556843" xmlns="http://www.w3.org/2000/svg" width="19.316" height="17.374" viewBox="0 0 19.316 17.374">
  <path id="Path_37015" data-name="Path 37015" d="M371.692,123.98a4.889,4.889,0,0,0-4.889,4.889c0,2.445,3.361,7.944,4.889,7.944s4.889-5.5,4.889-7.944h0a4.889,4.889,0,0,0-4.889-4.889Zm0,11.9c-.825-.14-3.972-4.727-3.972-7.028h0a3.972,3.972,0,0,1,7.926,0c.018,2.3-3.135,6.884-3.936,7.024Z" transform="translate(-357.265 -123.98)"/>
  <path id="Path_37016" data-name="Path 37016" d="M199.512,182.867a7.492,7.492,0,0,0,6.441-3.667,3.026,3.026,0,0,1-1.363-.761h-1.855a14.575,14.575,0,0,0,.254-1.882c-.189-.275-.367-.55-.532-.819s-.312-.532-.474-.816h-5.066a13.968,13.968,0,0,1,.306-2.6h3.6a8.8,8.8,0,0,1-.254-.917h-3.1c.513-1.619,1.317-2.594,2.044-2.594a1.43,1.43,0,0,1,1.024.593,5.745,5.745,0,0,1,.409-1.372,7.489,7.489,0,1,0-1.433,14.835Zm-5.225-3.511h2.224a7.552,7.552,0,0,0,1.051,2.3,6.59,6.59,0,0,1-3.276-2.3Zm5.225,2.594c-.739,0-1.528-.981-2.041-2.6h4.082C201.04,180.976,200.252,181.95,199.512,181.95Zm3-2.6h2.225a6.59,6.59,0,0,1-3.282,2.307,7.552,7.552,0,0,0,1.054-2.3Zm-.406-3.511a14.006,14.006,0,0,1-.306,2.6h-4.583a14,14,0,0,1-.306-2.6Zm-4.544-6.738a7.549,7.549,0,0,0-1.057,2.307h-2.218A6.589,6.589,0,0,1,197.563,169.1Zm-3.865,3.221h2.591a15.012,15.012,0,0,0-.29,2.6h-3.037a6.521,6.521,0,0,1,.736-2.6Zm-.736,3.517H196a15.015,15.015,0,0,0,.29,2.6H193.7A6.521,6.521,0,0,1,192.961,175.839Z" transform="translate(-191.997 -165.493)"/>
  <path id="Path_37017" data-name="Path 37017" d="M430.965,183.562A1.564,1.564,0,1,1,429.4,182a1.564,1.564,0,0,1,1.564,1.564" transform="translate(-414.968 -178.832)"/>
</svg>
