<svg xmlns="http://www.w3.org/2000/svg" width="19.797" height="22" viewBox="0 0 19.797 22">
  <g id="Bag" transform="translate(-0.002)">
    <path id="Bag-2" data-name="Bag" d="M14.476,22H5.358c-2.1,0-3.539-.481-4.4-1.471S-.182,18,.112,15.951L.969,9.362A4.238,4.238,0,0,1,2.311,6.8a3.081,3.081,0,0,1,2.034-.758V5.788a5.537,5.537,0,0,1,2.717-5,5.58,5.58,0,0,1,8.436,5v.253a2.984,2.984,0,0,1,2.007.778,4.6,4.6,0,0,1,1.347,2.543l.846,6.589a5.365,5.365,0,0,1-.942,4.447A5.454,5.454,0,0,1,14.476,22Zm-1.4-12.417a.968.968,0,1,0,0,1.935.977.977,0,0,0,.967-.968A.968.968,0,0,0,13.079,9.583Zm-6.38,0a.968.968,0,1,0,.968.967A.957.957,0,0,0,6.7,9.583ZM9.9,1.916A3.881,3.881,0,0,0,6.017,5.788v.244h7.776V5.788A3.887,3.887,0,0,0,9.9,1.916Z" transform="translate(0.002 0)" fill="#fff"/>
  </g>
</svg>
