<svg xmlns="http://www.w3.org/2000/svg" width="22.298" height="22.318" viewBox="0 0 22.298 22.318">
  <g id="Category" transform="translate(2.298 2.318)">
    <path id="Stroke_1" data-name="Stroke 1" d="M2.449,0H5.716A2.459,2.459,0,0,1,8.163,2.47V5.764a2.46,2.46,0,0,1-2.448,2.47H2.449A2.46,2.46,0,0,1,0,5.764V2.47A2.46,2.46,0,0,1,2.449,0Z" transform="translate(11.837 0)" fill="#fff" opacity="0.6"/>
    <path id="Stroke_3" data-name="Stroke 3" d="M3.138,0H7.323a3.152,3.152,0,0,1,3.138,3.166V7.387a3.153,3.153,0,0,1-3.138,3.166H3.138A3.153,3.153,0,0,1,0,7.387V3.166A3.152,3.152,0,0,1,3.138,0Z" transform="translate(-2.298 -2.318)" fill="#fff"/>
    <path id="Stroke_5" data-name="Stroke 5" d="M2.449,0H5.714A2.46,2.46,0,0,1,8.163,2.471V5.764a2.46,2.46,0,0,1-2.449,2.47H2.449A2.46,2.46,0,0,1,0,5.764V2.471A2.46,2.46,0,0,1,2.449,0Z" transform="translate(0 11.766)" fill="#fff" opacity="0.6"/>
    <path id="Stroke_7" data-name="Stroke 7" d="M2.449,0H5.716A2.46,2.46,0,0,1,8.163,2.471V5.764a2.459,2.459,0,0,1-2.448,2.47H2.449A2.46,2.46,0,0,1,0,5.764V2.471A2.46,2.46,0,0,1,2.449,0Z" transform="translate(11.837 11.766)" fill="#fff" opacity="0.6"/>
  </g>
</svg>
