<svg xmlns="http://www.w3.org/2000/svg" width="23" height="22.793" viewBox="0 0 23 22.793">
  <path id="Exclusion_1" data-name="Exclusion 1" d="M1766.121-3008.512a11.477,11.477,0,0,1-8.132-3.338,11.271,11.271,0,0,1-3.368-8.059,11.271,11.271,0,0,1,3.368-8.059,11.477,11.477,0,0,1,8.132-3.338,11.477,11.477,0,0,1,8.132,3.338,11.271,11.271,0,0,1,3.368,8.059,11.271,11.271,0,0,1-3.368,8.059A11.477,11.477,0,0,1,1766.121-3008.512Zm0-8.67c-.555,0-1.118.025-1.673.073a12.787,12.787,0,0,0-1.787.251,3.139,3.139,0,0,0-2.151,1.237,1.706,1.706,0,0,0-.167.74,1.754,1.754,0,0,0,.167.747,2.831,2.831,0,0,0,2.158,1.229,11.839,11.839,0,0,0,1.78.258,3.07,3.07,0,0,0,.622.042c.343.019.7.028,1.054.028.556,0,1.118-.024,1.67-.07a12.145,12.145,0,0,0,1.788-.258,2.811,2.811,0,0,0,2.15-1.229,1.721,1.721,0,0,0,0-1.487,2.846,2.846,0,0,0-2.15-1.237,13.09,13.09,0,0,0-1.788-.251C1767.239-3017.158,1766.676-3017.182,1766.121-3017.182Zm0-10.06a3.65,3.65,0,0,0-3.646,3.645,3.65,3.65,0,0,0,3.646,3.646,3.65,3.65,0,0,0,3.645-3.646A3.649,3.649,0,0,0,1766.125-3027.242Z" transform="translate(-1754.621 3031.305)" fill="#fff"/>
</svg>
