<svg id="heart_1_" data-name="heart (1)" xmlns="http://www.w3.org/2000/svg" width="15.272" height="13.119" viewBox="0 0 15.272 13.119">
  <path id="heart_1_2" data-name="heart (1)" d="M14.061,1.284A4.176,4.176,0,0,0,11.006,0a3.93,3.93,0,0,0-2.4.8,4.818,4.818,0,0,0-.97.978A4.815,4.815,0,0,0,6.666.8a3.93,3.93,0,0,0-2.4-.8A4.176,4.176,0,0,0,1.212,1.284,4.519,4.519,0,0,0,0,4.432,5.388,5.388,0,0,0,1.515,8.024,31.865,31.865,0,0,0,5.307,11.46c.525.432,1.121.922,1.739,1.444a.921.921,0,0,0,1.181,0c.618-.522,1.214-1.012,1.74-1.445a31.847,31.847,0,0,0,3.791-3.436,5.387,5.387,0,0,0,1.515-3.593,4.518,4.518,0,0,0-1.212-3.148Zm0,0" transform="translate(0)" fill="#fe7902"/>
</svg>
