<svg xmlns="http://www.w3.org/2000/svg" width="10.738" height="10.732" viewBox="0 0 10.738 10.732">
  <path id="iconfinder_-_Star-Favorite-Featured-Famous-Super_3844428" d="M11.68,5.651a.674.674,0,0,0-.538-.458l-2.537-.38L7.464,2.389a.667.667,0,0,0-1.213,0L5.127,4.8l-2.553.389a.675.675,0,0,0-.538.458.7.7,0,0,0,.161.71l1.847,1.89-.436,2.664a.689.689,0,0,0,.281.68.656.656,0,0,0,.7.04l2.252-1.258,2.284,1.258a.657.657,0,0,0,.7-.04.688.688,0,0,0,.281-.68L9.672,8.247l1.847-1.887A.7.7,0,0,0,11.68,5.651Z" transform="translate(-1.489 -1.5)" fill="#fdd14b" stroke="#fdd14b" stroke-width="1"/>
</svg>
