<svg xmlns="http://www.w3.org/2000/svg" width="25.026" height="25.633" viewBox="0 0 25.026 25.633">
  <g id="Bag" transform="translate(2.77 -0.028)">
    <path id="Path_33955" d="M15.122,16.8H5.568c-3.51,0-6.2-1.268-5.437-6.37l.89-6.914C1.493.974,3.116,0,4.541,0h11.65c1.446,0,2.975,1.048,3.52,3.52l.89,6.914C21.251,14.96,18.632,16.8,15.122,16.8Z" transform="translate(0.801 5.974)" fill="none" stroke="#acbac3" stroke-linecap="round" stroke-linejoin="round" stroke-width="1.5"/>
    <path id="Path_33956" d="M9.91,4.945A4.945,4.945,0,0,0,4.966,0h0A4.945,4.945,0,0,0,0,4.945H0" transform="translate(6.17 0.778)" fill="none" stroke="#acbac3" stroke-linecap="round" stroke-linejoin="round" stroke-width="1.5"/>
    <path id="Line_192" d="M.487.458H.435" transform="translate(14.043 10.419)" fill="none" stroke="#acbac3" stroke-linecap="round" stroke-linejoin="round" stroke-width="1.5"/>
    <path id="Line_193" d="M.487.458H.435" transform="translate(7.369 10.419)" fill="none" stroke="#acbac3" stroke-linecap="round" stroke-linejoin="round" stroke-width="1.5"/>
    <path id="Path_36197" data-name="Path 36197" d="M17.031,14.034H7.73c-3.51,0-7.206-2.873-6.443-7.975L2.019-.185" transform="translate(-3.199 10.877)" fill="none" stroke="#acbac3" stroke-linecap="round" stroke-linejoin="round" stroke-width="1.5"/>
  </g>
</svg>
