<svg xmlns="http://www.w3.org/2000/svg" width="21.273" height="20.23" viewBox="0 0 21.273 20.23">
  <g id="Filter" transform="translate(-345.477 -74.532)">
    <path id="Path_36166" data-name="Path 36166" d="M12.542,15.5c-.164,0-.329-.053-3.566-2.481a.774.774,0,0,1-.31-.62V9.623L4.108,5.066A2.968,2.968,0,0,1,6.207,0h9.569a2.968,2.968,0,0,1,2.1,5.066L13.317,9.624v5.105a.776.776,0,0,1-.429.694A.762.762,0,0,1,12.542,15.5Z" transform="translate(347.257 75.282)" fill="none" stroke="#fe7902" stroke-width="1.5"/>
    <path id="Path_36168" data-name="Path 36168" d="M9.5,15.831S5.817,13.311,5.857,13.3a.79.79,0,0,1-.317-.633V9.826L.887,5.173C.315,4.6-1.235,2.706.541.88" transform="translate(346.621 77.888)" fill="none" stroke="#fe7902" stroke-linecap="round" stroke-width="1.5"/>
  </g>
</svg>
