<svg xmlns="http://www.w3.org/2000/svg" xmlns:xlink="http://www.w3.org/1999/xlink" width="24" height="26" viewBox="0 0 24 26">

  <g id="Mask_Group_450" data-name="Mask Group 450" transform="translate(17368 -9103)" clip-path="url(#clip-path)">
    <g id="Group_36551" data-name="Group 36551">
      <g id="noun-filter-4547015" transform="translate(-17474.104 9010.287)">
        <path id="Path_37231" data-name="Path 37231" d="M120.4,99.716a3.8,3.8,0,0,1,.715.047,2.042,2.042,0,0,1,1.587,1.622,3.8,3.8,0,0,1,.032.716v.109a3.8,3.8,0,0,1-.047.715,2.042,2.042,0,0,1-1.621,1.587,3.81,3.81,0,0,1-.716.032h-.109a3.8,3.8,0,0,1-.715-.047,2.042,2.042,0,0,1-1.587-1.622,1.781,1.781,0,0,1-.025-.207h-6.523a.557.557,0,1,1,0-1.114h6.534a1.825,1.825,0,0,1,.031-.218,2.042,2.042,0,0,1,1.621-1.587,3.8,3.8,0,0,1,.716-.032Zm.486,1.137a8.589,8.589,0,0,0-1.1-.012.928.928,0,0,0-.737.722,8.559,8.559,0,0,0-.012,1.1.929.929,0,0,0,.722.737,8.589,8.589,0,0,0,1.1.012.928.928,0,0,0,.737-.722,8.562,8.562,0,0,0,.012-1.1A.929.929,0,0,0,120.89,100.853Z" transform="translate(0)" fill="#fff" fill-rule="evenodd"/>
        <path id="Path_37232" data-name="Path 37232" d="M509.544,158.614a.557.557,0,0,0,0-1.114h-1.485a.557.557,0,0,0,0,1.114Z" transform="translate(-384.041 -55.948)" fill="#fff"/>
        <path id="Path_37233" data-name="Path 37233" d="M111.4,368.614a.557.557,0,0,1,0-1.114h1.485a.557.557,0,0,1,0,1.114Z" transform="translate(-0.003 -259.265)" fill="#fff"/>
        <path id="Path_37234" data-name="Path 37234" d="M227.689,311.552H221.2a1.69,1.69,0,0,0-.022-.168,2.042,2.042,0,0,0-1.587-1.621,3.805,3.805,0,0,0-.715-.047h-.109a3.793,3.793,0,0,0-.716.032,2.042,2.042,0,0,0-1.622,1.587,3.8,3.8,0,0,0-.047.715v.109a3.8,3.8,0,0,0,.032.716A2.042,2.042,0,0,0,218,314.495a3.794,3.794,0,0,0,.715.047h.109a3.811,3.811,0,0,0,.716-.032,2.042,2.042,0,0,0,1.621-1.587,1.9,1.9,0,0,0,.034-.257h6.492a.557.557,0,1,0,0-1.114Zm-8.878-.723a3.469,3.469,0,0,1,.552.024.928.928,0,0,1,.722.737,8.593,8.593,0,0,1-.012,1.1.928.928,0,0,1-.737.722,8.614,8.614,0,0,1-1.1-.012.929.929,0,0,1-.722-.737,8.58,8.58,0,0,1,.012-1.1.928.928,0,0,1,.737-.722A3.478,3.478,0,0,1,218.811,310.829Z" transform="translate(-102.186 -203.317)" fill="#fff" fill-rule="evenodd"/>
      </g>
    </g>
  </g>
</svg>
