<svg xmlns="http://www.w3.org/2000/svg" xmlns:xlink="http://www.w3.org/1999/xlink" width="143.009" height="122.649" viewBox="0 0 143.009 122.649">
  <defs>
    <linearGradient id="linear-gradient" x1="0.5" x2="0.5" y2="1" gradientUnits="objectBoundingBox">
      <stop offset="0" stop-color="#fe7902"/>
      <stop offset="1" stop-color="#eea427"/>
    </linearGradient>
  </defs>
  <g id="Group_36563" data-name="Group 36563" transform="translate(-134.995 -78.564)">
    <g id="Group_36560" data-name="Group 36560" transform="translate(12.963 -293.091)">
      <path id="Path_37948" data-name="Path 37948" d="M155.489,239.538a33.282,33.282,0,0,1-13.122-2.564,31.968,31.968,0,0,1-17.408-17.541,34.516,34.516,0,0,1,0-25.888,32.613,32.613,0,0,1,6.936-10.516A32.276,32.276,0,0,1,142.367,176a34.866,34.866,0,0,1,26.244,0,31.974,31.974,0,0,1,17.405,17.541,34.515,34.515,0,0,1,0,25.888,31.974,31.974,0,0,1-17.405,17.541A33.334,33.334,0,0,1,155.489,239.538Zm0-11.311a21.38,21.38,0,0,0,8.262-1.591,20.811,20.811,0,0,0,6.716-4.417,20.133,20.133,0,0,0,4.506-6.849,24.928,24.928,0,0,0,0-17.762,20.181,20.181,0,0,0-4.506-6.849,20.77,20.77,0,0,0-6.716-4.417,22.248,22.248,0,0,0-16.525,0,20.824,20.824,0,0,0-6.716,4.417,20.061,20.061,0,0,0-4.506,6.849,24.963,24.963,0,0,0,0,17.762,20.1,20.1,0,0,0,4.506,6.849,20.744,20.744,0,0,0,6.716,4.417A21.361,21.361,0,0,0,155.489,228.227Z" transform="translate(38.051 223.455)" fill="url(#linear-gradient)"/>
      <path id="Path_37949" data-name="Path 37949" d="M311.234,75.471a18.354,18.354,0,0,1-18.353,18.353,18.65,18.65,0,0,1-3.665-.366,18.63,18.63,0,0,1-.366-3.665A18.354,18.354,0,0,1,307.2,71.44a18.593,18.593,0,0,1,3.665.366A18.574,18.574,0,0,1,311.234,75.471Z" transform="translate(-87.181 300.215)" fill="url(#linear-gradient)"/>
    </g>
    <path id="Homely" d="M-90.291-6.087a8.737,8.737,0,0,1-3.442-.672A8.46,8.46,0,0,1-96.48-8.6,8.534,8.534,0,0,1-98.3-11.36a8.75,8.75,0,0,1-.661-3.4,8.75,8.75,0,0,1,.661-3.4,8.534,8.534,0,0,1,1.819-2.758,8.46,8.46,0,0,1,2.747-1.843,8.737,8.737,0,0,1,3.442-.672,8.737,8.737,0,0,1,3.442.672A8.46,8.46,0,0,1-84.1-20.909a8.534,8.534,0,0,1,1.819,2.758,8.75,8.75,0,0,1,.661,3.4,8.75,8.75,0,0,1-.661,3.4A8.534,8.534,0,0,1-84.1-8.6a8.46,8.46,0,0,1-2.747,1.843A8.737,8.737,0,0,1-90.291-6.087Zm0-2.967a5.611,5.611,0,0,0,2.167-.417,5.457,5.457,0,0,0,1.762-1.159,5.272,5.272,0,0,0,1.182-1.8,6.13,6.13,0,0,0,.429-2.329,6.13,6.13,0,0,0-.429-2.329,5.272,5.272,0,0,0-1.182-1.8,5.457,5.457,0,0,0-1.762-1.159,5.612,5.612,0,0,0-2.167-.417,5.612,5.612,0,0,0-2.167.417,5.457,5.457,0,0,0-1.762,1.159,5.271,5.271,0,0,0-1.182,1.8,6.13,6.13,0,0,0-.429,2.329,6.13,6.13,0,0,0,.429,2.329,5.271,5.271,0,0,0,1.182,1.8,5.457,5.457,0,0,0,1.762,1.159A5.611,5.611,0,0,0-90.291-9.054Zm20.466-14h6.05a6.257,6.257,0,0,1,2.271.394,5.244,5.244,0,0,1,1.75,1.089,4.74,4.74,0,0,1,1.124,1.657,5.481,5.481,0,0,1,.394,2.1,4.358,4.358,0,0,1-.278,1.565,4.688,4.688,0,0,1-.765,1.321,5.63,5.63,0,0,1-1.136,1.043,5.751,5.751,0,0,1-1.368.707l-.023.162,4.45,6.374v.185h-3.593l-4.288-6.235H-66.7v6.235h-3.129Zm6.026,7.487a2.439,2.439,0,0,0,1.75-.649,2.171,2.171,0,0,0,.684-1.646,2.507,2.507,0,0,0-.151-.858,2.155,2.155,0,0,0-.452-.742,2.225,2.225,0,0,0-.753-.522,2.558,2.558,0,0,0-1.031-.2H-66.7v4.612Zm22.46-7.487h3.569l6.235,16.6h-3.454l-1.368-3.963h-6.4L-44.12-6.458h-3.454Zm3.963,9.758-1.483-4.149-.6-2.017h-.185l-.6,2.017L-41.733-13.3Zm17.059-9.758h3.639L-10-11.928h.185l-.185-3.2v-7.927H-6.9v16.6h-3.291l-7.046-11.751h-.185l.185,3.2v8.553h-3.083Zm33.678,7.487H21.5a5.437,5.437,0,0,1,.116.672,6.738,6.738,0,0,1,.046.788,9.193,9.193,0,0,1-.487,3.013,6.981,6.981,0,0,1-1.53,2.526,7.677,7.677,0,0,1-2.665,1.831,9.128,9.128,0,0,1-3.546.649,8.974,8.974,0,0,1-3.407-.649A8.482,8.482,0,0,1,7.242-8.544,8.675,8.675,0,0,1,5.365-11.29a8.543,8.543,0,0,1-.7-3.465,8.543,8.543,0,0,1,.7-3.465,8.676,8.676,0,0,1,1.877-2.747,8.482,8.482,0,0,1,2.781-1.808,8.974,8.974,0,0,1,3.407-.649,8.9,8.9,0,0,1,3.6.7A8.071,8.071,0,0,1,19.759-20.8L17.6-18.7a5.751,5.751,0,0,0-1.808-1.31,5.748,5.748,0,0,0-2.387-.452,5.779,5.779,0,0,0-2.156.406A5.4,5.4,0,0,0,9.468-18.9a5.469,5.469,0,0,0-1.217,1.8A5.914,5.914,0,0,0,7.8-14.755,5.914,5.914,0,0,0,8.251-12.4a5.381,5.381,0,0,0,1.228,1.8,5.535,5.535,0,0,0,1.8,1.147,5.841,5.841,0,0,0,2.179.406,5.806,5.806,0,0,0,2.237-.382,5.242,5.242,0,0,0,1.565-.985,3.757,3.757,0,0,0,.8-1.055,5.98,5.98,0,0,0,.522-1.425H13.361Zm23.294-4.52v3.848h6.652v2.967H36.656v3.848h7.394v2.967H33.527v-16.6H44.049v2.967Z" transform="translate(233.955 207.299)" fill="url(#linear-gradient)"/>
  </g>
</svg>
