<svg xmlns="http://www.w3.org/2000/svg" xmlns:xlink="http://www.w3.org/1999/xlink" width="25.134" height="34.732" viewBox="0 0 25.134 34.732">
  <defs>
    <linearGradient id="linear-gradient" x1="0.5" x2="0.5" y2="1" gradientUnits="objectBoundingBox">
      <stop offset="0" stop-color="#fe7902"/>
      <stop offset="1" stop-color="#eea427"/>
    </linearGradient>
  </defs>
  <g id="Group_36560" data-name="Group 36560" transform="translate(-160.491 -371.655)">
    <path id="Path_37948" data-name="Path 37948" d="M135.007,198.575a12.657,12.657,0,0,1-4.99-.975,12.157,12.157,0,0,1-6.62-6.67,13.125,13.125,0,0,1,0-9.844,12.4,12.4,0,0,1,2.638-4,12.273,12.273,0,0,1,3.982-2.671,13.258,13.258,0,0,1,9.98,0,12.159,12.159,0,0,1,6.619,6.67,13.125,13.125,0,0,1,0,9.844A12.159,12.159,0,0,1,140,197.6,12.676,12.676,0,0,1,135.007,198.575Zm0-4.3a8.13,8.13,0,0,0,3.142-.605,7.914,7.914,0,0,0,2.554-1.68,7.656,7.656,0,0,0,1.713-2.6,9.479,9.479,0,0,0,0-6.754,7.674,7.674,0,0,0-1.713-2.6,7.9,7.9,0,0,0-2.554-1.68,8.46,8.46,0,0,0-6.284,0,7.918,7.918,0,0,0-2.554,1.68,7.628,7.628,0,0,0-1.713,2.6,9.492,9.492,0,0,0,0,6.754,7.642,7.642,0,0,0,1.713,2.6,7.888,7.888,0,0,0,2.554,1.68A8.123,8.123,0,0,0,135.007,194.274Z" transform="translate(38.051 207.813)" fill="url(#linear-gradient)"/>
    <path id="Path_37949" data-name="Path 37949" d="M297.362,72.973a6.979,6.979,0,0,1-6.979,6.979,7.092,7.092,0,0,1-1.394-.139,7.084,7.084,0,0,1-.139-1.394,6.979,6.979,0,0,1,6.979-6.979,7.07,7.07,0,0,1,1.394.139A7.063,7.063,0,0,1,297.362,72.973Z" transform="translate(-112.7 300.215)" fill="url(#linear-gradient)"/>
  </g>
</svg>
