<svg xmlns="http://www.w3.org/2000/svg" xmlns:xlink="http://www.w3.org/1999/xlink" width="24.143" height="28.993" viewBox="0 0 24.143 28.993">
  <defs>
    <clipPath id="clip-path">
      <path id="Path_36190" data-name="Path 36190" d="M30.683,637.626H45.337v-12.6H21.194v28.993H45.337v-5.377H30.946Z" fill="none" stroke="#707070" stroke-width="1"/>
    </clipPath>
  </defs>
  <g id="Lowest_Price" data-name="Lowest Price" transform="translate(-19.928 -625.023)">
    <path id="Path_36189" data-name="Path 36189" d="M3.828,7.67,10.5,1M5.408,1H10.5V6.09" transform="translate(46.081 640.843) rotate(135)" fill="none" stroke="#7c9299" stroke-linecap="round" stroke-linejoin="round" stroke-width="1" fill-rule="evenodd"/>
    <g id="Mask_Group_8" data-name="Mask Group 8" transform="translate(-1.266)" clip-path="url(#clip-path)">
      <path id="Path_36188" data-name="Path 36188" d="M25.535,15.235,14.3,3.99a2.016,2.016,0,0,0-1.353-.578L5.277,3.28a2.015,2.015,0,0,0-1.432.565A1.993,1.993,0,0,0,3.28,5.277l.131,7.672A2.016,2.016,0,0,0,3.99,14.3L15.235,25.535a1.952,1.952,0,0,0,1.379.578,2,2,0,0,0,1.393-.578l7.528-7.528A1.966,1.966,0,0,0,25.535,15.235ZM7.942,7.942a.714.714,0,0,1-1.025,0A.725.725,0,0,1,7.942,6.917.714.714,0,0,1,7.942,7.942Z" transform="translate(37.381 621.697) rotate(60)" fill="none" stroke="#7c9299" stroke-width="1"/>
    </g>
  </g>
</svg>
