<svg xmlns="http://www.w3.org/2000/svg" width="40" height="40" viewBox="0 0 40 40">
  <g id="Newest_" data-name="Newest " transform="translate(-12 -619.821)">
    <circle id="Ellipse_3089" data-name="Ellipse 3089" cx="20" cy="20" r="20" transform="translate(12 619.821)" fill="#f6f6f7"/>
    <g id="Newest" transform="translate(-0.5 -0.5)">
      <path id="Path_36180" data-name="Path 36180" d="M17.059,9.487v8.9a4.818,4.818,0,0,1-4.819,4.819H5.318A4.818,4.818,0,0,1,.5,18.388V6.026A4.819,4.819,0,0,1,5.318,1.207H8.78Z" transform="translate(24 628.114)" fill="none" stroke="#7c9299" stroke-linecap="round" stroke-linejoin="round" stroke-width="1"/>
      <path id="Path_36181" data-name="Path 36181" d="M17.059,9.34H11.031A2.232,2.232,0,0,1,8.78,7.128V1.207Z" transform="translate(24 628.114)" fill="none" stroke="#7c9299" stroke-linecap="round" stroke-linejoin="round" stroke-width="1"/>
      <g id="Group_12589" data-name="Group 12589" transform="translate(0.259 -0.241)">
        <line id="Line_44" data-name="Line 44" x2="4.518" transform="translate(29.741 643.321)" fill="none" stroke="#7c9299" stroke-linecap="round" stroke-width="1"/>
        <line id="Line_45" data-name="Line 45" x2="4.518" transform="translate(32 641.062) rotate(90)" fill="none" stroke="#7c9299" stroke-linecap="round" stroke-width="1"/>
      </g>
    </g>
  </g>
</svg>
