<svg xmlns="http://www.w3.org/2000/svg" width="12.69" height="12.054" viewBox="0 0 12.69 12.054">
  <g id="Star_gray" data-name="Star gray" transform="translate(0 0)">
    <path id="Star" d="M10.1,7.5a.7.7,0,0,0-.2.615l.564,3.121a.686.686,0,0,1-.285.685.7.7,0,0,1-.742.051l-2.81-1.465a.721.721,0,0,0-.317-.083H6.134a.515.515,0,0,0-.171.057l-2.81,1.472a.739.739,0,0,1-.45.07.7.7,0,0,1-.565-.806L2.7,8.094a.711.711,0,0,0-.2-.621L.209,5.253a.685.685,0,0,1-.171-.717A.712.712,0,0,1,.6,4.06L3.755,3.6a.7.7,0,0,0,.558-.386L5.7.368A.645.645,0,0,1,5.831.2L5.887.152a.418.418,0,0,1,.1-.082L6.058.044,6.166,0h.267a.712.712,0,0,1,.558.38L8.4,3.216a.705.705,0,0,0,.527.386l3.153.457a.719.719,0,0,1,.577.476.689.689,0,0,1-.184.717Z" transform="translate(0 0)" fill="#e7e8ea"/>
  </g>
</svg>
