<svg xmlns="http://www.w3.org/2000/svg" width="36.35" height="17.92" viewBox="0 0 36.35 17.92">
  <g id="Top_Rated" data-name="Top Rated" transform="translate(2.458 1.472)">
    <path id="Path_36182" data-name="Path 36182" d="M779.1,129.018h.6l.608-1.9a1.479,1.479,0,0,1,2.818,0l.609,1.9h2.005a1.48,1.48,0,0,1,.871,2.674l-1.632,1.192.62,1.92a1.48,1.48,0,0,1-2.285,1.647l-1.6-1.173-1.6,1.174a1.48,1.48,0,0,1-2.285-1.648l.62-1.92-1.632-1.192" transform="translate(-753.934 -121.445)" fill="none" stroke="#7c9299" stroke-width="1"/>
    <path id="Path_36183" data-name="Path 36183" d="M10.394,131.693l-1.632,1.192.62,1.92A1.48,1.48,0,0,1,7.1,136.452l-1.6-1.173-1.6,1.175a1.48,1.48,0,0,1-2.286-1.648l.62-1.92L.6,131.693a1.481,1.481,0,0,1,.873-2.674h2l.609-1.9a1.48,1.48,0,0,1,2.819,0l.609,1.9h.6" transform="translate(-1.958 -121.445)" fill="none" stroke="#7c9299" stroke-width="1"/>
    <path id="Path_36184" data-name="Path 36184" d="M323.533,8.775l2.559,1.869-.972,3.009a2.32,2.32,0,0,0,3.582,2.583l2.5-1.841,2.5,1.839a2.319,2.319,0,0,0,3.581-2.581l-.972-3.009,2.559-1.869a2.319,2.319,0,0,0-1.366-4.192h-3.143l-.954-2.973a2.319,2.319,0,0,0-4.417,0l-.954,2.973H324.9a2.321,2.321,0,0,0-1.368,4.192Z" transform="translate(-315.449 -0.898)" fill="none" stroke="#7c9299" stroke-width="1"/>
  </g>
</svg>
